<svg width="20" height="20" viewBox="0 0 20 20" fill="none" xmlns="http://www.w3.org/2000/svg">
<path d="M18.3332 9.99984C18.3346 11.0975 18.1185 12.1845 17.6973 13.1981C17.2761 14.2117 16.6583 15.1318 15.8794 15.9053C15.107 16.6764 14.1901 17.2877 13.1812 17.7043C12.1724 18.1209 11.0913 18.3346 9.99985 18.3332C5.39735 18.3332 1.66651 14.6023 1.66651 9.99984C1.6636 7.86308 2.48437 5.80741 3.95818 4.26026C4.73582 3.43968 5.67273 2.7864 6.71157 2.34042C7.7504 1.89444 8.86932 1.66512 9.99985 1.66651C11.0913 1.6651 12.1724 1.8788 13.1812 2.29539C14.1901 2.71199 15.107 3.32331 15.8794 4.09443C16.6583 4.86785 17.2761 5.78796 17.6973 6.80157C18.1185 7.81519 18.3346 8.90221 18.3332 9.99984Z" stroke="white" stroke-width="2" stroke-linecap="round" stroke-linejoin="round"/>
<path d="M18.3331 9.99998C17.1173 9.99998 13.7631 9.54165 10.761 10.8596C7.49979 12.2916 5.13854 14.5133 4.10938 15.8946" stroke="white" stroke-width="2" stroke-linecap="round" stroke-linejoin="round"/>
<path d="M6.875 2.27246C8.17917 3.47621 11.025 6.54079 12.0833 9.58329C13.1417 12.6258 13.5333 16.3666 13.775 17.4312" stroke="white" stroke-width="2" stroke-linecap="round" stroke-linejoin="round"/>
<path d="M1.73047 8.9583C3.30464 9.0533 7.47172 9.13872 10.1384 7.99997C12.8051 6.86122 15.0996 4.76663 15.8867 4.10205M2.2913 13.1721C3.0256 14.9495 4.34993 16.4197 6.0413 17.335" stroke="white" stroke-width="2" stroke-linecap="round" stroke-linejoin="round"/>
<path d="M1.66651 9.99984C1.6636 7.86308 2.48437 5.80741 3.95818 4.26026C4.73582 3.43968 5.67273 2.7864 6.71157 2.34042C7.7504 1.89444 8.86932 1.66512 9.99985 1.66651M13.3332 2.35984C14.2822 2.77507 15.1456 3.36328 15.8794 4.09443C16.6583 4.86785 17.2761 5.78796 17.6973 6.80157C18.1185 7.81519 18.3346 8.90221 18.3332 9.99984C18.3332 11.0257 18.1478 12.0086 17.8082 12.9165M9.99985 18.3332C11.0913 18.3346 12.1724 18.1209 13.1812 17.7043C14.1901 17.2877 15.107 16.6764 15.8794 15.9053" stroke="white" stroke-width="2" stroke-linecap="round" stroke-linejoin="round"/>
</svg>
