<svg width="20" height="20" viewBox="0 0 20 20" fill="none" xmlns="http://www.w3.org/2000/svg">
<path fill-rule="evenodd" clip-rule="evenodd" d="M3.33317 9.99984C3.33329 8.71688 3.7036 7.46121 4.39966 6.38349C5.09572 5.30577 6.08797 4.45179 7.25734 3.92402C8.42672 3.39624 9.72354 3.21709 10.9922 3.40806C12.2609 3.59904 13.4475 4.15202 14.4097 5.00066C15.3718 5.84931 16.0687 6.95755 16.4166 8.19243C16.7646 9.4273 16.7488 10.7363 16.3713 11.9625C15.9937 13.1886 15.2703 14.2798 14.288 15.105C13.3056 15.9302 12.1061 16.4545 10.8332 16.6148V11.6665H12.4998C12.7209 11.6665 12.9328 11.5787 13.0891 11.4224C13.2454 11.2661 13.3332 11.0542 13.3332 10.8332C13.3332 10.6122 13.2454 10.4002 13.0891 10.2439C12.9328 10.0876 12.7209 9.99984 12.4998 9.99984H10.8332V8.33317C10.8332 8.11216 10.921 7.9002 11.0772 7.74392C11.2335 7.58763 11.4455 7.49984 11.6665 7.49984H12.0832C12.3042 7.49984 12.5161 7.41204 12.6724 7.25576C12.8287 7.09948 12.9165 6.88752 12.9165 6.6665C12.9165 6.44549 12.8287 6.23353 12.6724 6.07725C12.5161 5.92097 12.3042 5.83317 12.0832 5.83317H11.6665C11.0035 5.83317 10.3676 6.09656 9.89874 6.5654C9.4299 7.03424 9.1665 7.67013 9.1665 8.33317V9.99984H7.49984C7.27882 9.99984 7.06686 10.0876 6.91058 10.2439C6.7543 10.4002 6.6665 10.6122 6.6665 10.8332C6.6665 11.0542 6.7543 11.2661 6.91058 11.4224C7.06686 11.5787 7.27882 11.6665 7.49984 11.6665H9.1665V16.6148C7.55542 16.4117 6.07385 15.6276 4.99984 14.4096C3.92583 13.1917 3.3332 11.6237 3.33317 9.99984ZM9.99984 18.3332C14.6023 18.3332 18.3332 14.6023 18.3332 9.99984C18.3332 5.39734 14.6023 1.6665 9.99984 1.6665C5.39734 1.6665 1.6665 5.39734 1.6665 9.99984C1.6665 14.6023 5.39734 18.3332 9.99984 18.3332Z" fill="white"/>
</svg>
