<svg width="18" height="18" viewBox="0 0 18 18" fill="none" xmlns="http://www.w3.org/2000/svg">
<path d="M9.00067 6.49984C8.33763 6.49984 7.70174 6.76323 7.2329 7.23207C6.76406 7.70091 6.50067 8.3368 6.50067 8.99984C6.50067 9.66288 6.76406 10.2988 7.2329 10.7676C7.70174 11.2364 8.33763 11.4998 9.00067 11.4998C9.66371 11.4998 10.2996 11.2364 10.7684 10.7676C11.2373 10.2988 11.5007 9.66288 11.5007 8.99984C11.5007 8.3368 11.2373 7.70091 10.7684 7.23207C10.2996 6.76323 9.66371 6.49984 9.00067 6.49984ZM9.00067 4.83317C10.1057 4.83317 11.1655 5.27216 11.9469 6.05356C12.7284 6.83496 13.1673 7.89477 13.1673 8.99984C13.1673 10.1049 12.7284 11.1647 11.9469 11.9461C11.1655 12.7275 10.1057 13.1665 9.00067 13.1665C7.8956 13.1665 6.83579 12.7275 6.05439 11.9461C5.27299 11.1647 4.834 10.1049 4.834 8.99984C4.834 7.89477 5.27299 6.83496 6.05439 6.05356C6.83579 5.27216 7.8956 4.83317 9.00067 4.83317ZM14.4173 4.62484C14.4173 4.9011 14.3076 5.16606 14.1122 5.36141C13.9169 5.55676 13.6519 5.6665 13.3757 5.6665C13.0994 5.6665 12.8345 5.55676 12.6391 5.36141C12.4438 5.16606 12.334 4.9011 12.334 4.62484C12.334 4.34857 12.4438 4.08362 12.6391 3.88827C12.8345 3.69292 13.0994 3.58317 13.3757 3.58317C13.6519 3.58317 13.9169 3.69292 14.1122 3.88827C14.3076 4.08362 14.4173 4.34857 14.4173 4.62484ZM9.00067 2.33317C6.939 2.33317 6.60234 2.339 5.64317 2.3815C4.98984 2.41234 4.5515 2.49984 4.14484 2.65817C3.80452 2.78312 3.49685 2.98339 3.24484 3.244C2.98401 3.496 2.78346 3.80366 2.65817 4.144C2.49984 4.55234 2.41234 4.98984 2.38234 5.64234C2.339 6.56234 2.33317 6.884 2.33317 8.99984C2.33317 11.0623 2.339 11.3982 2.3815 12.3573C2.41234 13.0098 2.49984 13.449 2.65734 13.8548C2.799 14.2173 2.96567 14.4782 3.24234 14.7548C3.52317 15.0348 3.784 15.2023 4.14234 15.3407C4.554 15.4998 4.99234 15.5882 5.64234 15.6182C6.56234 15.6615 6.884 15.6665 8.99984 15.6665C11.0623 15.6665 11.3982 15.6607 12.3573 15.6182C13.009 15.5873 13.4473 15.4998 13.8548 15.3423C14.1948 15.2168 14.5024 15.0166 14.7548 14.7565C15.0357 14.4765 15.2032 14.2157 15.3415 13.8565C15.4998 13.4465 15.5882 13.0082 15.6182 12.3565C15.6615 11.4373 15.6665 11.1148 15.6665 8.99984C15.6665 6.93817 15.6607 6.6015 15.6182 5.64234C15.5873 4.99067 15.499 4.55067 15.3415 4.144C15.2159 3.80402 15.0157 3.49649 14.7557 3.244C14.5038 2.98304 14.1961 2.78248 13.8557 2.65734C13.4473 2.499 13.009 2.4115 12.3573 2.3815C11.4382 2.33817 11.1165 2.33317 8.99984 2.33317M8.99984 0.666504C11.264 0.666504 11.5465 0.674837 12.4357 0.716504C13.3223 0.758171 13.9273 0.897337 14.4582 1.104C15.0082 1.31567 15.4715 1.60234 15.9348 2.06484C16.3586 2.48142 16.6865 2.98533 16.8957 3.5415C17.1015 4.07234 17.2415 4.67734 17.2832 5.56484C17.3223 6.45317 17.3332 6.73567 17.3332 8.99984C17.3332 11.264 17.3248 11.5465 17.2832 12.4348C17.2415 13.3223 17.1015 13.9265 16.8957 14.4582C16.687 15.0146 16.3591 15.5187 15.9348 15.9348C15.5181 16.3584 15.0143 16.6863 14.4582 16.8957C13.9273 17.1015 13.3223 17.2415 12.4357 17.2832C11.5465 17.3223 11.264 17.3332 8.99984 17.3332C6.73567 17.3332 6.45317 17.3248 5.564 17.2832C4.67734 17.2415 4.07317 17.1015 3.5415 16.8957C2.98511 16.6869 2.48111 16.359 2.06484 15.9348C1.64103 15.5183 1.31314 15.0144 1.104 14.4582C0.897337 13.9273 0.758171 13.3223 0.716504 12.4348C0.676504 11.5465 0.666504 11.264 0.666504 8.99984C0.666504 6.73567 0.674837 6.45317 0.716504 5.56484C0.758171 4.67734 0.897337 4.07317 1.104 3.5415C1.31253 2.98499 1.64051 2.48094 2.06484 2.06484C2.48123 1.64086 2.98519 1.31295 3.5415 1.104C4.07234 0.897337 4.6765 0.758171 5.564 0.716504C6.454 0.677337 6.7365 0.666504 9.00067 0.666504" fill="white"/>
</svg>
